<svg xmlns="http://www.w3.org/2000/svg" xmlns:xlink="http://www.w3.org/1999/xlink">
  <!-- 000: search -->
  <symbol id="search" viewBox="0 0 25 25">
    <path style="stroke: var(--color-icon, white)" stroke-width="2" fill="none" d="m16 16 8 8m-6-13a7 7 0 1 1-14 0 7 7 0 0 1 14 0Z"/>
  </symbol>
  <use xlink:href="#search" width="25" height="25" x="0" y="0"/>
  <view id="search-view" viewBox="0 0 25 25"/>

  <!-- 100: globe -->
  <symbol id="globe" fill="none" viewBox="0 0 25 26">
    <path style="fill: var(--color-icon, white)" d="M12.5 26a12.3 12.3 0 0 1-8.9-3.7A12.4 12.4 0 0 1 0 13.4 12.3 12.3 0 0 1 7.6 2C10.7.7 14.3.7 17.4 2A12.2 12.2 0 0 1 25 13.4 12.5 12.5 0 0 1 12.5 26Zm0-1.8c.7-.8 1.4-1.6 1.8-2.6.6-1 1-2.3 1.2-3.4h-6l1.2 3.3a8 8 0 0 0 1.8 2.7Zm-2.7-.4a15 15 0 0 1-2.2-5.6H2.9c.7 1.3 1.6 2.5 2.7 3.4a14 14 0 0 0 4.2 2.2Zm5.4 0a13.8 13.8 0 0 0 7-5.6h-4.7l-1 3c-.3 1-.8 1.8-1.3 2.6Zm-13-7.5h5a17.6 17.6 0 0 1-.1-2.9 27.5 27.5 0 0 1 .1-2.7h-5a9.1 9.1 0 0 0-.2 4.2l.2 1.4Zm7 0h6.7a21.5 21.5 0 0 0 0-5.6H9.2a22 22 0 0 0 0 5.6Zm8.5 0h5a8.8 8.8 0 0 0 .4-2.9 11 11 0 0 0-.4-2.7h-5a58.2 58.2 0 0 1 .2 4c0 .4 0 1-.2 1.6Zm-.3-7.5h4.7a10.1 10.1 0 0 0-7-5.6c.6.8 1 1.6 1.4 2.5l1 3.1Zm-7.9 0h6a12.2 12.2 0 0 0-3-6c-.7.7-1.3 1.4-1.7 2.3-.5 1.2-1 2.4-1.3 3.7Zm-6.6 0h4.7a17.6 17.6 0 0 1 2.2-5.6 10.3 10.3 0 0 0-7 5.6Z"/>
  </symbol>
  <use xlink:href="#globe" width="25" height="25" x="0" y="100"/>
  <view id="globe-view" viewBox="0 100 25 25"/>

  <!-- 200: chevron-right -->
  <symbol id="chevron-right" viewBox="0 0 6 10">
    <path style="fill: var(--color-icon, white)" d="M6 5 1.3.2a.8.8 0 0 0-1 0 .8.8 0 0 0 0 1.1L3.7 5 .2 8.7a.8.8 0 0 0 0 1 .8.8 0 0 0 1.1 0Z"/>
  </symbol>
  <use xlink:href="#chevron-right" width="6" height="10" x="0" y="200"/>
  <view id="chevron-right-view" viewBox="0 200 6 10"/>

  <!-- 300: logo -->
  <symbol id="logo" viewBox="0 0 117 32">
      <path style="fill: var(--color-icon, white)" d="M56.1 20.3a10 10 0 0 1-3 5.4 8.2 8.2 0 0 1-5.6 2c-2 0-3.5-.4-4.6-1.5-1-1-1.5-2.7-1.5-4.8 0-2 .5-3.9 1.5-6 1-2 2.1-3.6 3.6-4.9 1-.8 2.2-1.3 3.4-1.3.7 0 1.7.3 3 .8 1.5.6 2.2 1.3 2.2 2 0 .4-.1.8-.4 1.1-.3.3-.7.5-1.2.5a4 4 0 0 1-1.5-.7c-.7-.4-1.4-.6-2-.6-.8 0-1.7.7-2.8 2.2a11 11 0 0 0-2.6 7c0 1.2.2 2 .6 2.5.4.5 1.1.7 2.3.7a5 5 0 0 0 3-1 6 6 0 0 0 2-3c-1.7.1-3.2.5-4.5 1-.2.2-.5.2-.7.2-.5 0-.9-.2-1.2-.5-.3-.3-.4-.7-.4-1 0-1.2 1.4-2 4.1-2.5 1.5-.2 3.3-.4 5.4-.4a1.6 1.6 0 0 1 1.6 1.6c0 .5-.2 1-.7 1.2Zm6.5 7.4a5 5 0 0 1-3.6-1.5 5.8 5.8 0 0 1-1.8-4.2 7 7 0 0 1 1.4-4.4 5.6 5.6 0 0 1 4.8-2.3c1.5 0 2.7.6 3.6 1.8.8 1 1.2 2.4 1.2 4 0 1.8-.5 3.3-1.4 4.5a5 5 0 0 1-4.2 2Zm.7-9.5c-1 0-1.7.5-2.2 1.3-.5.7-.7 1.6-.7 2.5 0 1 .2 1.6.8 2.1.4.4.8.6 1.4.6.6 0 1.2-.2 1.7-.7a3 3 0 0 0 .9-2c0-2.5-.6-3.7-2-3.8Zm16.6 9.5c-.4 0-1-.3-1.7-1l-1.8.7-1.3.2c-1.9 0-3.2-.5-4.1-1.4-1-1-1.4-2.5-1.4-4.4 0-1.8.7-3.4 2-4.7a7 7 0 0 1 4.8-2c.8 0 1.6.3 2.5.7 1.2.5 1.7 1 1.7 1.7 0 .3 0 .5-.2.7l-.2 1.2a19.5 19.5 0 0 0 .2 4.7 34 34 0 0 0 1 2.3c0 .4-.1.7-.5 1-.3.2-.6.3-1 .3ZM77 20a8.6 8.6 0 0 1 .2-1.9 2 2 0 0 0-.7-.2c-1 0-2 .4-2.7 1.2-.8.8-1.2 1.7-1.2 2.8 0 1 .2 1.8.6 2.3.3.5.9.7 1.6.7a3.8 3.8 0 0 0 2.5-.9l-.3-4Zm14-2.1a16.9 16.9 0 0 1-1.1 0h-1.1a174 174 0 0 1 .2 7.2c0 1.8-.5 2.6-1.6 2.6-.4 0-.8-.1-1-.4-.4-.2-.6-.6-.6-1a32 32 0 0 1 0-2.4l-.1-5.9c-.5 0-1.2 0-2.2-.2-.9 0-1.4-.6-1.4-1.4a1.5 1.5 0 0 1 1.6-1.6l1.9.2a60.5 60.5 0 0 0-.1-2.3c0-.5.1-.8.5-1.1.3-.3.6-.4 1-.4 1.2 0 1.8 1 1.8 2.8v1a8.3 8.3 0 0 1 2.9 0c.6.2.9.7.9 1.4 0 .4-.2.8-.5 1-.3.3-.7.5-1.1.5Zm11 .8c-.8 0-1.3-.3-1.4-1h-1c-1.8 0-2.7.2-2.7.7 0 .3.6.7 1.6 1.2l3 1.6c1.2.8 1.7 1.7 1.7 2.7 0 1.3-.6 2.3-1.8 3a8 8 0 0 1-6.3.3c-1.2-.4-1.7-1-1.7-1.9 0-.7.4-1 1.3-1 .4 0 .9 0 1.5.2.7.3 1.2.4 1.5.4 1.6 0 2.3-.3 2.4-1 0-.3-.6-.8-1.6-1.2l-3-1.5c-1.1-.8-1.6-1.7-1.6-2.7 0-1.6.8-2.6 2.4-3.1 1-.3 2.4-.5 4.3-.5a4 4 0 0 1 1.7.3c.5.3.7.8.7 1.5 0 1.3-.4 2-1 2Zm4.8 4.9c-.4 0-.8 0-1-.4-.3-.2-.4-.6-.4-1a38.4 38.4 0 0 0 0-2.6 720 720 0 0 1 0-9.4c0-.4.1-.7.4-1 .3-.2.6-.4 1-.4s.8.2 1 .4c.3.3.5.6.5 1v12c0 .4-.2.8-.4 1-.3.3-.7.4-1 .4Zm0 4.1c-.5 0-.9-.2-1.3-.7a2 2 0 0 1-.5-1.2c0-.4.1-.7.5-1 .3-.3.6-.4 1-.4.5 0 .9.2 1.3.7.3.5.5.9.5 1.3 0 .3-.2.7-.5 1-.3.2-.6.3-1 .3ZM31.7 17 26 13.6a6.8 6.8 0 0 0-4.2-6.4 9 9 0 0 1 5.7-5.9c.3-.1.5-.4.5-.7 0-.4-.3-.6-.7-.6-5.9 0-9 2-10.4 6.7h-1.8C13.6 1.9 10.6 0 4.7 0c-.4 0-.6.2-.7.6 0 .3.2.6.5.7a9 9 0 0 1 5.7 6A6.9 6.9 0 0 0 6 13.6L.3 17l-.3.4c0 .2 0 .4.2.6A5.9 5.9 0 0 0 7 19.5l1.2 6A7.8 7.8 0 0 0 16 32c3.8 0 7-2.7 7.7-6.5l1.2-6a5.8 5.8 0 0 0 7-1.5.7.7 0 0 0-.2-1ZM24 1.6c-2.1 1.7-3.1 4-3.5 5.2L19 6.7h-.7a6.8 6.8 0 0 1 5.8-5.1Zm-16 0c3.4.6 5 2.4 5.8 5H13l-1.6.2C11 5.5 10 3.3 8 1.6ZM6.8 18c-1.6.9-3.7.7-5-.4L6.2 15l.6 3Zm15.6 7.2c-.5 2.9-2.9 5-5.7 5.3v-2c.5-.1 1.1-.3 1.7-.7.3-.2.4-.6.2-1a.7.7 0 0 0-1-.1 3 3 0 0 1-1.6.5 3 3 0 0 1-1.6-.5.7.7 0 1 0-.8 1c.6.5 1.2.7 1.7.8v2a6.4 6.4 0 0 1-5.7-5.3L7.4 14.7A5.6 5.6 0 0 1 13 8.1h6a5.6 5.6 0 0 1 5.6 6.6l-2.2 10.6Zm2.8-7.2.6-3 4.4 2.6a4.6 4.6 0 0 1-5 .4Z"/>
      <path style="fill: var(--color-icon, white)" d="M20 16a2 2 0 0 0-2 2c0 1.1.9 2 2 2a2 2 0 0 0 2-2 2 2 0 0 0-2-2Zm0 2.7a.7.7 0 0 1-.7-.7c0-.4.3-.7.7-.7.4 0 .7.3.7.7 0 .4-.3.7-.7.7ZM12 16a2 2 0 0 0-2 2c0 1.1.9 2 2 2a2 2 0 0 0 2-2 2 2 0 0 0-2-2Zm0 2.7a.7.7 0 0 1-.7-.7c0-.4.3-.7.7-.7.4 0 .7.3.7.7 0 .4-.3.7-.7.7ZM22.7 12c-3.1-.2-5 1.4-5.1 1.5-.3.2-.4.6-.1 1l.5.2c.1 0 .3 0 .4-.2 0 0 1.7-1.3 4.2-1.2.4 0 .7-.2.7-.6 0-.4-.2-.7-.6-.7ZM9.3 12c-.4 0-.6.3-.6.7 0 .3.3.6.7.6 2.5 0 4.2 1.2 4.2 1.2l.4.2c.2 0 .4-.1.5-.3a1 1 0 0 0 0-1c-.2 0-2.1-1.5-5.2-1.4Z"/>
  </symbol>
  <use xlink:href="#logo" width="117" height="32" x="0" y="300"/>
  <view id="logo-view" viewBox="0 300 117 32"/>

</svg>
