<?xml version="1.0" encoding="UTF-8"?>
<!DOCTYPE svg PUBLIC "-//W3C//DTD SVG 1.1//EN" "http://www.w3.org/Graphics/SVG/1.1/DTD/svg11.dtd">
<svg xmlns="http://www.w3.org/2000/svg" xmlns:xlink="http://www.w3.org/1999/xlink">
  <symbol id="search" viewBox="0 0 25 25">
    <path stroke="white" stroke-width="2" fill="none" d="m16 16 8 8m-6-13a7 7 0 1 1-14 0 7 7 0 0 1 14 0Z"/>
  </symbol>
  <symbol id="globe" fill="none" viewBox="0 0 25 26">
    <path fill="white" d="M12.5 26a12.3 12.3 0 0 1-8.9-3.7A12.4 12.4 0 0 1 0 13.4 12.3 12.3 0 0 1 7.6 2C10.7.7 14.3.7 17.4 2A12.2 12.2 0 0 1 25 13.4 12.5 12.5 0 0 1 12.5 26Zm0-1.8c.7-.8 1.4-1.6 1.8-2.6.6-1 1-2.3 1.2-3.4h-6l1.2 3.3a8 8 0 0 0 1.8 2.7Zm-2.7-.4a15 15 0 0 1-2.2-5.6H2.9c.7 1.3 1.6 2.5 2.7 3.4a14 14 0 0 0 4.2 2.2Zm5.4 0a13.8 13.8 0 0 0 7-5.6h-4.7l-1 3c-.3 1-.8 1.8-1.3 2.6Zm-13-7.5h5a17.6 17.6 0 0 1-.1-2.9 27.5 27.5 0 0 1 .1-2.7h-5a9.1 9.1 0 0 0-.2 4.2l.2 1.4Zm7 0h6.7a21.5 21.5 0 0 0 0-5.6H9.2a22 22 0 0 0 0 5.6Zm8.5 0h5a8.8 8.8 0 0 0 .4-2.9 11 11 0 0 0-.4-2.7h-5a58.2 58.2 0 0 1 .2 4c0 .4 0 1-.2 1.6Zm-.3-7.5h4.7a10.1 10.1 0 0 0-7-5.6c.6.8 1 1.6 1.4 2.5l1 3.1Zm-7.9 0h6a12.2 12.2 0 0 0-3-6c-.7.7-1.3 1.4-1.7 2.3-.5 1.2-1 2.4-1.3 3.7Zm-6.6 0h4.7a17.6 17.6 0 0 1 2.2-5.6 10.3 10.3 0 0 0-7 5.6Z"/>
  </svg>
</svg>
